<?xml version="1.0" encoding="utf-8"?>
<!-- Generator: Adobe Illustrator 18.0.0, SVG Export Plug-In . SVG Version: 6.00 Build 0)  -->
<!DOCTYPE svg PUBLIC "-//W3C//DTD SVG 1.1//EN" "http://www.w3.org/Graphics/SVG/1.1/DTD/svg11.dtd">
<svg version="1.1" id="Layer_1" xmlns="http://www.w3.org/2000/svg" xmlns:xlink="http://www.w3.org/1999/xlink" x="0px" y="0px"
	 viewBox="0 0 304.2 474.9" enable-background="new 0 0 304.2 474.9" xml:space="preserve">
<polygon display="none" fill="#9A2929" points="0.2,474.9 304.4,0 304.4,474.9 "/>
<rect x="0" y="0" fill="#A02321" width="304.2" height="474.9"/>
<path fill="#B8312A" d="M150.8,458.8H17.1c-0.6,0-1-0.4-1-1V17.1c0-0.6,0.4-1,1-1h133.7c0.6,0,1,0.4,1,1v440.7
	C151.8,458.4,151.4,458.8,150.8,458.8z"/>
<polygon fill="#F1F2F2" points="119.7,354.4 48.2,354.4 48.2,309.5 135.8,172.4 135.8,104.6 32.1,104.6 32.1,217.2 48.2,192.1 
	48.2,120.5 119.7,120.5 119.7,165.4 32.1,302.5 32.1,370.3 135.8,370.3 135.8,257.7 119.7,282.8 "/>
<polygon fill="#F1F2F2" points="184,354.4 255.6,354.4 255.6,309.5 168,172.4 168,104.6 271.6,104.6 271.6,217.2 255.6,192.1 
	255.6,120.5 184,120.5 184,165.4 271.6,302.5 271.6,370.3 168,370.3 168,257.7 184,282.8 "/>
</svg>
