<?xml version="1.0" encoding="utf-8"?>
<!-- Generator: Adobe Illustrator 18.0.0, SVG Export Plug-In . SVG Version: 6.00 Build 0)  -->
<!DOCTYPE svg PUBLIC "-//W3C//DTD SVG 1.1//EN" "http://www.w3.org/Graphics/SVG/1.1/DTD/svg11.dtd">
<svg version="1.1" id="Layer_1" xmlns="http://www.w3.org/2000/svg" xmlns:xlink="http://www.w3.org/1999/xlink" x="0px" y="0px"
	 viewBox="0 0 500 500" enable-background="new 0 0 500 500" xml:space="preserve">
<path display="none" fill="#397BA8" d="M454.3,499.5H45.1C20.3,499.5,0,479.2,0,454.3V45.1C0,20.3,20.3,0,45.1,0h409.2
	c24.8,0,45.1,20.3,45.1,45.1v409.2C499.5,479.2,479.2,499.5,454.3,499.5z"/>
<path fill="#F1F1F2" d="M399.7,154.4c0-25.5-9.1-46-27.2-61.5c-18.1-15.6-44.7-23.3-79.7-23.3h-79.1L181.4,92l-76.4,325h150.9
	c30.5,0,57.8-9,81.9-26.9c24.1-17.9,36.2-42,36.2-72.3c0-32.5-17.7-59.1-53.2-80C373.4,226.8,399.7,199,399.7,154.4z M274.1,346.1
	c-10,12.7-24.2,19.1-42.7,19.1h-41.5l24.4-105.4h29.8c14,0,25,3.8,33,11.4c8,7.6,12,17.6,12,30.1
	C289.1,318.5,284.1,333.4,274.1,346.1z M257.8,210.9h-32.3l20.4-88.4h30.8c24.7,0,37,11.3,37,33.9
	C313.8,192.7,295.2,210.9,257.8,210.9z"/>
<g>
	<g>
		<path fill="#F1F1F2" d="M347.2,431.2l2.9,27.1h0.1l14.4-27.1h11.5l-7.9,37.5h-7.7l6.8-29.8h-0.1l-15.8,29.8h-6.3l-3.6-29.8h-0.1
			l-5.6,29.8H328l7.9-37.5H347.2z"/>
		<path fill="#F1F1F2" d="M402.2,431.2l6.2,37.5h-8.2l-1.2-8.3h-14l-4.7,8.3h-8.7l22.1-37.5H402.2z M398.4,454.2l-1.8-14.9h-0.1
			l-8.1,14.9H398.4z"/>
		<path fill="#F1F1F2" d="M410.9,431.2h8.4l5.6,15.9l11.6-15.9h9.7l-18.3,23.3l-2.9,14.2h-8.3l3-14.5L410.9,431.2z"/>
		<path fill="#F1F1F2" d="M464.4,431.2l6.2,37.5h-8.2l-1.2-8.3h-14l-4.7,8.3h-8.7l22.1-37.5H464.4z M460.5,454.2l-1.8-14.9h-0.1
			l-8.1,14.9H460.5z"/>
	</g>
</g>
<path fill="#EDAF53" d="M251.4,328.8c-92-23.9-151.5-101.1-133-172.4c5.4-20.9,16.9-39,32.8-53.5c-26.5,16.2-45.9,39.8-53.4,68.9
	c-18.5,71.4,41,148.6,133,172.4c65,16.9,128.8,2.5,167.2-32.5C359.5,335.2,305.9,343,251.4,328.8z"/>
</svg>
